<?xml version="1.0" encoding="UTF-8"?>
<svg id="Capa_1" xmlns="http://www.w3.org/2000/svg" version="1.1" viewBox="0 0 138 139">
  <!-- Generator: Adobe Illustrator 29.1.0, SVG Export Plug-In . SVG Version: 2.1.0 Build 142)  -->
  <defs>
    <style>
      .st0 {
        fill: #1c1c1c;
      }

      .st1 {
        fill: #fff;
      }
    </style>
  </defs>
  <path class="st1" d="M43.2,122.9c-1.9,0-3.8-.7-5.1-2.1l-25.9-25.9c-1.4-1.4-2.1-3.2-2.1-5.2s.8-3.8,2.1-5.2l25.9-25.9c1.1-1,2.4-1.7,3.8-2,.5,0,1-.1,1.4-.1.9,0,1.9.2,2.7.5,1.4.6,2.5,1.5,3.3,2.7.8,1.2,1.2,2.6,1.2,4.1v18.5h40.1c6.1,0,11.9-2.4,16.2-6.7,4.3-4.3,6.7-10.1,6.7-16.2s-2.4-11.8-6.7-16.2c-4.3-4.3-10.1-6.7-16.2-6.7h-47.4c-2,0-3.8-.8-5.2-2.1s-2.1-3.2-2.1-5.2.8-3.8,2.1-5.2c1.4-1.4,3.2-2.1,5.2-2.1h47.4c10,0,19.4,3.9,26.5,11,7.1,7.1,11,16.5,11,26.5,0,10-3.9,19.4-11,26.5-7.1,7.1-16.5,11-26.5,11h-40.1v18.6c0,1.4-.4,2.8-1.2,4-.8,1.2-1.9,2.1-3.3,2.7-.9.4-1.9.6-2.8.6h0Z"/>
  <path class="st0" d="M90.7,25c9.2,0,17.9,3.6,24.4,10.1,6.5,6.5,10.1,15.2,10.1,24.4,0,9.2-3.7,17.9-10.1,24.4-6.5,6.5-15.2,10.1-24.4,10.1h-43.1v21.6c0,.9-.2,1.7-.7,2.4-.5.7-1.1,1.3-1.9,1.6-.5.2-1.1.3-1.7.3-1.1,0-2.2-.4-3.1-1.2l-25.9-25.9c-.8-.8-1.3-1.9-1.3-3.1s.4-2.3,1.3-3.1l25.9-25.9c.6-.6,1.4-1,2.2-1.1.3,0,.6,0,.9,0,.6,0,1.1.1,1.6.3.8.3,1.5.9,1.9,1.6.5.7.7,1.5.7,2.4v21.6h43.1c6.9,0,13.4-2.7,18.3-7.6,4.8-4.8,7.6-11.4,7.6-18.3s-2.7-13.4-7.6-18.3c-4.8-4.8-11.4-7.6-18.3-7.6h-47.4c-1.1,0-2.2-.4-3.1-1.3-.8-.8-1.3-1.9-1.3-3s.5-2.2,1.3-3.1c.8-.8,1.9-1.3,3.1-1.3h47.4M90.7,19h-47.5c-2.8,0-5.3,1.1-7.3,3-1.9,1.9-3,4.5-3,7.3s1.1,5.3,3,7.3,4.5,3,7.3,3h47.4c5.3,0,10.3,2.1,14,5.8s5.8,8.7,5.8,14.1-2.1,10.3-5.8,14-8.7,5.8-14,5.8h-37.1v-15.6c0-2-.6-4-1.7-5.7-1.1-1.7-2.7-3-4.6-3.8h0s0,0,0,0c-1.2-.5-2.5-.7-3.8-.7s-1.3,0-2,.2c-2,.4-3.8,1.3-5.2,2.7h0c0,0,0,.1,0,.1l-25.9,25.9c-2,2-3,4.6-3,7.3s1.1,5.3,3,7.3l25.9,25.9h0c0,0,0,.1,0,.1,2,1.9,4.5,2.9,7.2,2.9h0c1.3,0,2.6-.3,3.9-.8h0s0,0,0,0c1.9-.8,3.5-2.1,4.6-3.8,1.1-1.7,1.7-3.7,1.7-5.7v-15.5h37.1c10.8,0,21-4.2,28.6-11.9s11.9-17.8,11.9-28.6c0-10.8-4.2-21-11.9-28.6-7.7-7.6-17.8-11.9-28.6-11.9Z"/>
</svg>