<svg width="138" height="139" viewBox="0 0 138 139" fill="none" xmlns="http://www.w3.org/2000/svg">
<path d="M120.749 95.8372V42.6856C120.745 41.9179 120.538 41.1648 120.15 40.5023C119.762 39.8398 119.206 39.2913 118.539 38.9122L71.1014 12.2286C70.4622 11.8596 69.7371 11.6653 68.999 11.6653C68.2609 11.6653 67.5359 11.8596 66.8967 12.2286L19.4592 38.9122C18.7916 39.2913 18.2357 39.8398 17.8477 40.5023C17.4596 41.1648 17.2531 41.9179 17.249 42.6856V95.8372C17.2531 96.605 17.4596 97.358 17.8477 98.0205C18.2357 98.683 18.7916 99.2315 19.4592 99.6106L66.8967 126.294C67.5359 126.663 68.2609 126.858 68.999 126.858C69.7371 126.858 70.4622 126.663 71.1014 126.294L118.539 99.6106C119.206 99.2315 119.762 98.683 120.15 98.0205C120.538 97.358 120.745 96.605 120.749 95.8372Z" fill="white" stroke="#1C1C1C" stroke-width="6" stroke-linecap="round" stroke-linejoin="round"/>
<path d="M95.4141 82.4686V54.4374L43.125 25.5975" stroke="#1C1C1C" stroke-width="6" stroke-linecap="round" stroke-linejoin="round"/>
<path d="M120.157 40.4753L69.485 69.2613L17.8428 40.4753" stroke="#1C1C1C" stroke-width="6" stroke-linecap="round" stroke-linejoin="round"/>
<path d="M69.4852 69.2617L69 126.834" stroke="#1C1C1C" stroke-width="6" stroke-linecap="round" stroke-linejoin="round"/>
</svg>
