<svg width="410" height="169" viewBox="0 0 410 169" fill="none" xmlns="http://www.w3.org/2000/svg">
<circle cx="205" cy="205.315" r="160.792" transform="rotate(19.3587 205 205.315)" fill="white"/>
<path d="M153.618 351.513C234.368 379.885 322.829 337.423 351.201 256.672C379.572 175.922 337.11 87.4608 256.359 59.0894C175.609 30.718 87.1479 73.1798 58.7766 153.93C30.4052 234.681 72.867 323.142 153.618 351.513Z" stroke="#292929" stroke-width="11.612" stroke-miterlimit="10"/>
<path d="M153.619 351.512C189.244 364.029 241.124 308.715 269.495 227.964C297.867 147.214 291.986 71.6053 256.36 59.0884C220.735 46.5715 168.855 101.886 140.484 182.637C112.112 263.387 117.993 338.995 153.619 351.512Z" stroke="#292929" stroke-width="11.612" stroke-miterlimit="10"/>
<path d="M129.443 74.1631C129.443 74.1631 206.73 161.478 345.99 150.246" stroke="#292929" stroke-width="11.612" stroke-miterlimit="10"/>
<path d="M58.7764 153.93L351.222 256.679" stroke="#292929" stroke-width="11.612" stroke-miterlimit="10"/>
</svg>
