<svg width="26" height="27" viewBox="0 0 26 27" fill="none" xmlns="http://www.w3.org/2000/svg">
  <path d="M13 3.30518C10.9109 3.30518 8.86879 3.92466 7.13179 5.08528C5.3948 6.2459 4.04098 7.89554 3.24153 9.82558C2.44208 11.7556 2.2329 13.8794 2.64046 15.9283C3.04802 17.9772 4.054 19.8593 5.53119 21.3365C7.00838 22.8137 8.89044 23.8197 10.9394 24.2272C12.9883 24.6348 15.1121 24.4256 17.0421 23.6262C18.9721 22.8267 20.6218 21.4729 21.7824 19.7359C22.943 17.9989 23.5625 15.9567 23.5625 13.8677C23.5595 11.0672 22.4458 8.38234 20.4656 6.40213C18.4853 4.42191 15.8004 3.30813 13 3.30518ZM13 22.8052C11.2323 22.8052 9.50436 22.281 8.0346 21.2989C6.56483 20.3169 5.41929 18.921 4.74283 17.2879C4.06637 15.6548 3.88938 13.8578 4.23424 12.1241C4.57909 10.3904 5.43031 8.79784 6.68024 7.54791C7.93017 6.29798 9.52268 5.44676 11.2564 5.10191C12.9901 4.75705 14.7871 4.93404 16.4202 5.6105C18.0534 6.28696 19.4492 7.4325 20.4313 8.90227C21.4133 10.372 21.9375 12.1 21.9375 13.8677C21.9348 16.2372 20.9923 18.5089 19.3168 20.1845C17.6413 21.86 15.3696 22.8025 13 22.8052ZM17.875 13.8677C17.875 14.0832 17.7894 14.2898 17.637 14.4422C17.4847 14.5946 17.278 14.6802 17.0625 14.6802H13.8125V17.9302C13.8125 18.1457 13.7269 18.3523 13.5745 18.5047C13.4222 18.6571 13.2155 18.7427 13 18.7427C12.7845 18.7427 12.5779 18.6571 12.4255 18.5047C12.2731 18.3523 12.1875 18.1457 12.1875 17.9302V14.6802H8.9375C8.72202 14.6802 8.51535 14.5946 8.36298 14.4422C8.21061 14.2898 8.125 14.0832 8.125 13.8677C8.125 13.6522 8.21061 13.4455 8.36298 13.2932C8.51535 13.1408 8.72202 13.0552 8.9375 13.0552H12.1875V9.80518C12.1875 9.58969 12.2731 9.38302 12.4255 9.23065C12.5779 9.07828 12.7845 8.99268 13 8.99268C13.2155 8.99268 13.4222 9.07828 13.5745 9.23065C13.7269 9.38302 13.8125 9.58969 13.8125 9.80518V13.0552H17.0625C17.278 13.0552 17.4847 13.1408 17.637 13.2932C17.7894 13.4455 17.875 13.6522 17.875 13.8677Z" fill="black"/>
</svg>