<svg width="24" height="25" viewBox="0 0 24 25" fill="none" xmlns="http://www.w3.org/2000/svg">
<path d="M14.25 11.1873C14.25 11.3863 14.171 11.577 14.0303 11.7177C13.8896 11.8583 13.6989 11.9373 13.5 11.9373H11.25V14.1873C11.25 14.3863 11.171 14.577 11.0303 14.7177C10.8896 14.8583 10.6989 14.9373 10.5 14.9373C10.3011 14.9373 10.1103 14.8583 9.96964 14.7177C9.82899 14.577 9.74997 14.3863 9.74997 14.1873V11.9373H7.49997C7.30106 11.9373 7.11029 11.8583 6.96964 11.7177C6.82899 11.577 6.74997 11.3863 6.74997 11.1873C6.74997 10.9884 6.82899 10.7977 6.96964 10.657C7.11029 10.5164 7.30106 10.4373 7.49997 10.4373H9.74997V8.18735C9.74997 7.98844 9.82899 7.79767 9.96964 7.65702C10.1103 7.51637 10.3011 7.43735 10.5 7.43735C10.6989 7.43735 10.8896 7.51637 11.0303 7.65702C11.171 7.79767 11.25 7.98844 11.25 8.18735V10.4373H13.5C13.6989 10.4373 13.8896 10.5164 14.0303 10.657C14.171 10.7977 14.25 10.9884 14.25 11.1873ZM19.5306 20.218C19.4609 20.2877 19.3782 20.343 19.2872 20.3808C19.1961 20.4185 19.0985 20.4379 19 20.4379C18.9014 20.4379 18.8038 20.4185 18.7128 20.3808C18.6217 20.343 18.539 20.2877 18.4693 20.218L15.7762 17.5239C14.1428 18.8844 12.0478 19.5629 9.92691 19.4181C7.80604 19.2733 5.82265 18.3164 4.38932 16.7465C2.95599 15.1766 2.18308 13.1145 2.23138 10.9893C2.27968 8.86401 3.14547 6.83919 4.64864 5.33602C6.15181 3.83285 8.17663 2.96706 10.3019 2.91876C12.4271 2.87046 14.4892 3.64337 16.0591 5.0767C17.629 6.51003 18.5859 8.49342 18.7307 10.6143C18.8755 12.7352 18.1971 14.8302 16.8365 16.4636L19.5306 19.1567C19.6003 19.2264 19.6556 19.3091 19.6934 19.4001C19.7311 19.4912 19.7506 19.5888 19.7506 19.6873C19.7506 19.7859 19.7311 19.8835 19.6934 19.9746C19.6556 20.0656 19.6003 20.1483 19.5306 20.218ZM10.5 17.9373C11.835 17.9373 13.14 17.5415 14.2501 16.7998C15.3601 16.0581 16.2253 15.0039 16.7362 13.7705C17.2471 12.5371 17.3807 11.1799 17.1203 9.87049C16.8598 8.56112 16.2169 7.35838 15.2729 6.41438C14.3289 5.47037 13.1262 4.8275 11.8168 4.56705C10.5075 4.3066 9.15026 4.44027 7.91686 4.95116C6.68346 5.46205 5.62925 6.32722 4.88755 7.43725C4.14585 8.54728 3.74997 9.85232 3.74997 11.1873C3.75196 12.977 4.46375 14.6927 5.72919 15.9581C6.99463 17.2236 8.71037 17.9354 10.5 17.9373Z" fill="#1C1C1C"/>
</svg>
