<svg width="33" height="33" viewBox="0 0 33 33" fill="none" xmlns="http://www.w3.org/2000/svg">
<g clip-path="url(#clip0_7464_19838)">
<path opacity="0.2" d="M16.4911 17.1203L4.57859 10.6003C4.5213 10.7281 4.49149 10.8665 4.49109 11.0066V22.9616C4.4915 23.1406 4.53996 23.3163 4.63143 23.4702C4.7229 23.6241 4.85402 23.7506 5.01109 23.8366L16.0111 29.8591C16.1581 29.9404 16.3231 29.9834 16.4911 29.9841V17.1203Z" fill="black"/>
<path d="M4.57861 10.5991L16.4911 17.1191L28.4036 10.5991" stroke="black" stroke-width="2" stroke-linecap="round" stroke-linejoin="round"/>
<path d="M16.4911 17.1203V29.9803" stroke="black" stroke-width="2" stroke-linecap="round" stroke-linejoin="round"/>
<path d="M27.9711 23.8391L16.9711 29.8616C16.8239 29.9421 16.6589 29.9843 16.4911 29.9843C16.3233 29.9843 16.1583 29.9421 16.0111 29.8616L5.01109 23.8391C4.85402 23.7531 4.7229 23.6266 4.63143 23.4727C4.53996 23.3188 4.4915 23.1431 4.49109 22.9641V11.0066C4.4915 10.8275 4.53996 10.6519 4.63143 10.498C4.7229 10.344 4.85402 10.2175 5.01109 10.1316L16.0111 4.10907C16.1583 4.02854 16.3233 3.98634 16.4911 3.98634C16.6589 3.98634 16.8239 4.02854 16.9711 4.10907L27.9711 10.1316C28.1282 10.2175 28.2593 10.344 28.3507 10.498C28.4422 10.6519 28.4907 10.8275 28.4911 11.0066V22.9616C28.4911 23.141 28.4429 23.3172 28.3514 23.4716C28.2599 23.626 28.1285 23.7529 27.9711 23.8391Z" stroke="black" stroke-width="2" stroke-linecap="round" stroke-linejoin="round"/>
<path d="M10.6861 7.02282L22.4911 13.4841V19.9841" stroke="black" stroke-width="2" stroke-linecap="round" stroke-linejoin="round"/>
</g>
<defs>
<clipPath id="clip0_7464_19838">
<rect width="32" height="32" fill="white" transform="translate(0.491089 0.98407)"/>
</clipPath>
</defs>
</svg>
