<?xml version="1.0" encoding="utf-8"?>
<!-- Generator: Adobe Illustrator 23.0.1, SVG Export Plug-In . SVG Version: 6.00 Build 0)  -->
<svg version="1.1" id="Layer_1" xmlns="http://www.w3.org/2000/svg" xmlns:xlink="http://www.w3.org/1999/xlink" x="0px" y="0px"
	 viewBox="0 0 121 121" style="enable-background:new 0 0 121 121;" xml:space="preserve">
<style type="text/css">
	.st0{fill-rule:evenodd;clip-rule:evenodd;fill:#FFFFFF;}
</style>
<path class="st0" d="M27.5,47.3C22,53.7,16.7,61.7,16.6,67.7c0,2.2,0.7,4.2,2.4,5.7c2.5,2.1,5.2,2.9,7.9,2.9c4,0,7.9-1.6,11-2.8
	c5.2-2.1,62.7-27,62.7-27c0.6-0.3,0.5-0.6-0.2-0.5c-0.3,0.1-62.6,16.9-62.6,16.9c-1.2,0.3-2.4,0.5-3.6,0.5c-4.8,0-9-2.6-9-8.2
	C25.2,53,25.9,50.4,27.5,47.3z"/>
</svg>
