<svg width="121" height="121" viewBox="0 0 121 121" fill="none" xmlns="http://www.w3.org/2000/svg">
<path d="M64.0619 28.7993C64.0338 28.6467 64.0147 28.4926 64.0046 28.3377C63.8568 26.164 65.4957 24.2817 67.6691 24.1318C69.8449 23.9834 71.7266 25.6244 71.8754 27.7981C72.0241 29.9718 70.3845 31.8541 68.2112 32.004C68.0737 32.0143 67.9374 32.0159 67.8043 32.0105C67.7162 32.0331 67.6634 32.0437 67.5875 32.1105C67.3633 32.4588 68.156 32.3949 67.6149 33.9176C67.6149 33.9176 67.611 34.0849 67.5509 34.252C67.5077 34.8368 67.2803 36.5696 67.2467 37.4926C67.3609 37.6265 67.3931 37.6916 67.38 38.016C67.3284 38.4544 67.2262 39.5289 67.0635 40.2172C66.9255 40.8071 66.6844 40.9194 66.49 41.0636C66.2151 42.2857 66.1415 43.2982 65.4388 44.7821C65.3736 45.9075 65.294 46.214 65.0572 46.7632C65.0284 48.4205 65.1425 48.6674 64.0205 51.29C63.73 52.517 64.0034 53.3664 64.3062 54.6422C64.616 55.9532 65.48 56.5022 65.6066 57.8446C65.9048 61.0059 65.8259 63.1578 65.1441 65.6353L65.734 67.0379C66.4681 67.3759 68.2895 68.2997 67.2766 69.7564C68.699 70.5066 70.848 71.3042 72.6194 72.8239C73.3319 73.419 74.0846 74.0679 74.7598 74.8292C76.0471 75.0318 75.9095 75.1338 76.863 75.7216C79.6666 77.4462 84.1617 80.8659 86.7667 83.2862C87.2156 83.5493 87.3985 83.7385 87.7609 83.9293C87.8175 84.038 87.8328 84.0632 87.8202 84.0927C87.6952 84.4079 87.6998 84.4171 87.5868 84.6683C87.7274 84.8241 87.9895 84.9699 88.1461 85.1064C88.2928 85.1523 88.2929 85.082 88.5446 85.0207C88.8715 85.3278 89.2768 85.5754 89.4223 85.5612C89.8665 85.4492 89.7906 85.5408 90.1665 85.1216C90.3017 84.9828 90.5276 85.124 90.5276 85.124C90.6687 84.9588 90.9721 84.6297 91.3762 84.3921C91.6987 84.2027 92.3137 84.1824 92.3137 84.1824C92.5196 84.1845 92.4806 84.3956 92.4627 84.4643C92.2299 84.5839 91.7369 84.7152 91.4598 84.9188C90.8563 85.5412 90.3831 86.3812 90.3831 86.3812C91.5967 86.2173 92.3416 86.5194 93.3528 86.4049C93.9043 86.3738 94.3111 86.41 94.8908 85.9917C94.8908 85.9917 95.448 85.5963 95.9469 85.3869C96.4315 85.1765 96.891 85.2898 97.3167 85.6C97.6173 85.9401 97.7986 85.9422 97.3401 86.4212C97.1744 86.6072 96.9345 86.8149 96.6296 87.1158C96.0934 87.644 95.3716 88.3481 94.6244 88.9307C93.8678 89.5197 93.0093 90.0483 92.4735 90.2906C91.1213 91.2592 91.4405 91.0059 90.3771 91.9663C90.2428 92.0861 89.8869 92.3001 89.7142 92.4143C89.295 92.6886 89.1646 92.4592 88.8922 91.9553C88.8922 91.9553 88.7676 91.767 88.562 91.3647C88.3374 90.9259 88.1691 90.4242 88.2375 90.4326C87.9859 90.4003 86.8549 89.0706 86.8526 88.7858C86.613 88.7306 85.5926 87.7398 85.5564 87.5507L84.6522 86.8237C83.6163 87.0372 83.3797 86.3937 80.6472 84.4489C80.3352 84.4429 79.8533 84.2737 79.1631 83.7603C77.9303 82.7698 74.9724 80.5288 74.4708 80.2724C73.9321 79.997 73.2883 79.7374 72.8936 79.4106C72.3018 79.3008 71.9782 79.2384 71.6822 79.1554C71.3798 79.0721 71.1047 78.9646 70.3389 78.861C69.0924 78.7042 67.8 78.1862 66.5698 77.5682C65.9875 77.2912 65.4802 77.1496 64.9788 76.9332C63.8539 76.4562 62.8895 76.0267 62.142 75.8529C61.8566 75.8242 60.5009 75.4154 59.7902 74.9992C59.5437 74.8718 59.4012 74.75 59.2392 74.7127C58.8659 74.6262 58.626 74.7734 58.4572 74.83C57.5442 75.304 56.6893 75.7133 55.8995 76.1368C55.1643 76.5285 54.4874 76.9356 53.77 77.3473C53.1229 77.7198 52.3755 78.0707 51.6072 78.4363C51.6072 78.4363 49.4162 79.5304 48.2197 79.9552C47.181 80.8006 45.0582 82.2627 43.7628 82.9865C43.1214 83.2903 41.875 84.0774 41.3003 84.253C40.9722 84.5164 39.8034 85.3478 38.8883 86.0335C38.1811 86.5609 37.6468 87.0057 37.6468 87.0057C37.236 87.373 37.2637 87.5477 36.4842 87.2151C36.2673 87.3928 36.0999 87.5033 35.9604 87.6053C35.3964 88.0132 35.3487 87.9146 35.1428 87.9036C34.7495 88.243 34.7004 88.0671 34.3564 88.4578C34.1304 88.8067 34.3613 88.7236 33.8854 88.8923C33.785 88.9308 33.7373 89.0519 33.6598 89.119C33.277 89.4333 33.2742 90.3232 32.3581 90.3854C31.8273 90.7629 31.9623 91.22 31.5573 91.1995C31.5816 91.592 30.8391 92.1638 30.7053 92.1618C29.5368 92.563 29.457 91.7043 28.0541 92.3429C27.8726 92.4258 27.6062 92.6547 27.2557 92.7204C26.6391 92.8358 25.8942 92.7129 25.4403 92.3603C24.7258 91.8078 24.0688 90.743 24.0688 90.743C23.8422 90.2054 23.975 89.8659 24.6855 89.3591C24.9816 89.1714 25.0364 89.0306 25.5332 88.9973C25.7801 88.9044 25.7127 89.047 26.1535 88.8896C26.409 88.7982 26.4089 88.8636 26.9232 88.8204C27.0412 88.7411 27.2069 88.7131 27.4289 88.6414C27.836 88.5079 28.2327 88.359 28.2327 88.359C28.2327 88.359 28.3365 88.2551 28.7277 88.2928C29.059 88.1577 29.3993 87.9569 29.5737 87.8954C29.5303 87.371 29.5867 87.3956 29.83 87.1848C30.1333 86.9241 30.1878 86.9669 30.4131 87.1289C30.5083 87.0741 30.5541 87.0555 30.5438 86.9757C30.507 86.7025 30.2731 86.5736 30.3446 85.9717C30.2409 85.7303 30.0882 85.4325 30.1219 85.2527C30.1716 85.0588 30.2193 84.9653 30.3372 84.9038C30.4625 84.8374 30.5029 84.9274 30.5697 85.0026C30.6891 85.1421 30.7855 85.5547 30.7855 85.5547C30.8272 86.0199 30.9705 86.6225 31.4307 86.2832C31.7023 86.0086 31.7562 85.2762 32.3089 85.4339L32.703 85.7775C33.0383 85.4631 33.0542 85.4632 33.2551 85.3367C33.2551 85.3367 32.9419 85.0193 33.2172 84.773C33.4059 84.6057 33.6332 84.4861 34.0373 84.0396C35.1469 82.8171 35.7166 82.277 36.916 81.2922C39.3089 79.33 42.0303 77.9552 43.7592 77.2722C44.3236 76.5578 44.8724 76.0833 46.123 75.9651C47.6131 73.4572 50.4627 71.2198 51.1168 70.8633C51.65 69.9002 51.8806 70.003 52.5766 69.8104C53.1283 69.3694 53.2535 69.3695 53.5009 68.9084C53.7419 67.9563 52.9531 65.4097 54.9767 65.2841C55.4074 64.6775 55.2998 64.8231 55.7797 64.2496C55.4568 63.4495 55.324 62.7804 55.2368 62.204C55.2209 62.137 54.4346 61.5811 54.6591 60.8573C54.3252 60.4588 53.7012 59.529 53.5063 59.0936C53.4167 59.0953 53.3425 59.0614 53.244 59.0478C53.1419 59.0314 53.0148 59.037 52.8725 59.0246C52.5561 59.8373 52.2127 59.8972 51.6521 60.0759C50.6486 62.2065 50.2951 63.1084 47.462 64.8669C46.3365 66.1233 45.9751 67.5245 45.9804 67.5037C45.7861 67.9189 45.8537 68.5004 45.9555 68.8124C45.8069 69.2737 45.8455 69.3194 45.8455 69.3194C45.9069 69.4938 46.067 69.7248 46.264 69.7742C46.6038 69.8646 46.9439 69.8507 46.9237 70.2293C46.8772 70.703 46.2557 70.6245 45.9615 70.5713C44.8291 70.3898 45.188 69.6523 44.4635 69.8977C43.9081 70.2599 43.6988 71.3305 42.7935 71.1902C42.6739 71.1108 42.7111 70.8768 42.7924 70.7078C42.9198 70.4438 43.1453 70.2256 43.0117 70.1263C42.421 70.3145 41.8312 70.5057 41.2425 70.7C40.6874 70.8505 40.08 70.5731 40.6267 70.2091C40.8806 70.1109 41.2435 69.9878 41.6913 69.7018C41.6913 69.7018 41.9222 69.3886 41.4801 69.5447C40.9972 69.7165 40.2854 69.8228 39.7749 69.7659C39.7749 69.7659 38.7164 69.6254 38.5809 69.542C38.4436 69.4587 38.3192 69.1314 38.6503 69.1337C39.0694 69.138 40.1194 69.0159 40.9335 68.8004C41.3265 68.6479 42.074 68.2071 42.4935 67.9997C42.4935 67.9997 42.9489 67.3381 43.1992 67.2081C43.6172 66.7282 43.9699 66.4448 44.3403 65.9538C44.7026 65.209 45.0778 64.03 46.2763 62.205C46.8304 61.3638 47.5189 60.3841 48.3849 59.5084C48.3849 59.5084 48.6107 58.1051 49.7377 57.108C49.9871 56.5234 50.3649 55.8354 50.7374 55.1983C50.8823 54.9537 51.0198 54.7409 51.1576 54.5085C51.5073 53.9613 51.8752 52.9421 53.2351 52.7836C53.2351 52.7836 53.8169 52.3549 54.041 52.0499C54.3904 51.7527 54.3116 51.2896 54.5956 50.9638C54.1629 50.5406 53.0563 49.7446 52.9502 48.64C52.8375 47.4686 53.2562 46.5057 53.9655 45.7936C54.7522 45.0092 55.5807 44.6176 56.5861 44.6789C57.8415 44.8673 58.0787 45.2835 58.478 45.6962C58.8613 46.0877 59.0043 45.8362 59.1657 46.2943C60.2187 46.576 60.1606 46.4526 60.1505 47.2277C60.3122 47.4461 60.5832 47.6493 60.5789 48.1019C60.934 47.3678 61.0045 47.2326 61.9517 46.4254C62.1764 45.7688 62.3292 45.1227 62.5266 44.4661C62.7119 43.8588 62.942 43.2337 63.1204 42.7636C62.9339 41.4352 63.3212 41.2158 63.8393 40.0523C63.7481 39.892 63.7678 39.8463 63.8068 39.5837C64.0087 38.8144 64.3237 37.7967 64.5113 37.1329C64.5113 37.1329 64.5733 36.8688 64.8465 36.8499C65.084 36.0101 65.4404 34.4466 65.5004 34.1278C65.7447 33.2493 65.5883 32.9671 65.4025 32.4719C65.3428 32.3098 65.3711 32.0791 65.268 31.8991C64.9744 31.3862 64.6587 30.7199 64.4446 30.2439C64.3058 29.9409 64.0871 28.799 64.0871 28.799C63.8989 28.216 64.0619 28.7993 64.0619 28.7993Z" fill="#1C1C1C"/>
</svg>
