<svg width="121" height="121" viewBox="0 0 121 121" fill="none" xmlns="http://www.w3.org/2000/svg">
<path d="M28.7733 32.5937C28.2743 32.6676 27.7921 34.4504 26.8266 35.3781C26.1205 36.0476 25.2403 36.0044 24.7716 36.8327C24.5936 37.1421 24.6504 37.6708 24.4482 38.1781C24.0534 39.1927 22.6671 39.2814 22.6655 40.3875C22.6589 41.582 23.8194 41.8118 24.823 42.6608C25.6063 43.3442 25.6824 43.8146 26.6314 44.1466C27.4419 44.4157 28.6494 43.5418 29.7353 43.8578C30.6272 44.1177 31.4806 44.3051 31.6809 45.1949C31.857 46.0147 31.6658 47.2857 30.5844 47.1375C30.2198 47.0974 28.6401 46.5781 26.6973 46.7755C24.3537 47.0306 21.6785 47.7693 21.4135 50.3048C21.2675 51.7226 23.0709 53.397 24.815 53.0596C26.0216 52.8307 25.4529 51.4494 26.111 50.7797C26.9732 49.9218 31.8456 53.7871 36.3808 53.7937C38.2899 53.7965 39.7103 53.3306 41.1228 51.8983C41.2546 51.789 41.4158 51.5541 41.6196 51.5404C41.8115 51.5547 42.1469 51.739 42.2572 51.8184C45.9056 54.6737 48.6576 60.3941 62.0808 60.4813C63.9682 60.4932 66.118 61.372 67.8713 62.9299C69.4355 64.3386 70.3484 66.5262 71.2348 68.7465C72.5731 72.0782 74.9763 75.3206 78.6211 78.9303C78.82 79.1238 81.8216 81.3962 82.0612 81.5665C82.0995 81.5898 82.3195 82.1024 82.2425 82.3885C82.1505 84.5493 81.8175 90.8331 86.6423 91.1243C87.8223 91.1842 87.514 90.3782 87.5148 89.8239C87.5141 88.7296 87.3093 87.6419 87.9059 86.5228C88.721 84.9827 86.1848 84.2687 86.264 80.9368C86.3203 78.4525 84.1708 78.873 83.0823 76.9785C82.4556 75.8809 81.8977 75.2981 81.9404 73.9568C82.1961 66.4086 80.3039 61.4462 79.3583 60.2271C78.6212 59.3062 78.0101 58.9398 78.6869 58.5146C82.7175 55.9383 83.6347 53.5366 83.6347 53.5366C85.7834 48.6525 87.7159 44.1915 90.3736 42.2304C90.909 41.8259 92.2823 40.8338 93.1247 40.4438C95.6037 39.3134 96.9094 38.6286 97.63 37.9496C98.7706 36.8732 99.6732 34.6276 98.5839 33.2639C97.229 31.5807 94.8792 32.9115 93.8423 33.506C86.4326 37.7611 85.3304 45.2848 82.7601 49.6027C80.7095 53.0527 77.3794 55.5836 74.4053 55.7865C72.1745 55.9438 69.7722 55.5026 67.3801 54.4792C61.5632 51.9933 58.3828 48.7894 57.6331 48.2226C56.071 47.0491 43.9478 35.4613 34.1131 34.9742C34.1131 34.9742 32.896 32.5999 32.589 32.5598C31.8695 32.4702 31.1312 33.9756 30.6034 34.1497C30.1066 34.3094 29.2747 32.5152 28.7733 32.5937Z" fill="#1C1C1C"/>
</svg>
