<svg width="32" height="32" viewBox="0 0 32 32" fill="none" xmlns="http://www.w3.org/2000/svg">
<g clip-path="url(#clip0_2683_4148)">
<path d="M29.0088 10.8274V15.7489C29.0088 16.0147 28.8988 16.2608 28.7187 16.4478C28.5286 16.6348 28.2785 16.7333 28.0084 16.7333C25.9176 16.7333 23.8568 16.2411 22.0061 15.2962V19.6862C22.0061 21.4678 21.4859 23.21 20.5155 24.7062C19.5451 26.2023 18.1546 27.4032 16.5239 28.1611C14.8833 28.919 13.0626 29.1947 11.2719 28.9584C9.48116 28.732 7.7905 28.0036 6.39995 26.8618C5.00941 25.72 3.98901 24.214 3.4388 22.521C2.88858 20.828 2.84856 19.007 3.30874 17.2943C3.76892 15.5816 4.7293 14.0264 6.05982 12.8157C7.39034 11.6148 9.04099 10.8077 10.8217 10.4927C10.9617 10.4632 11.1118 10.473 11.2519 10.5124C11.3919 10.5518 11.522 10.6108 11.632 10.7093C11.752 10.7979 11.8421 10.916 11.9021 11.0538C11.9621 11.1817 11.9921 11.3294 11.9921 11.477V16.5955C11.9921 16.7825 11.9421 16.9596 11.8321 17.1171C11.732 17.2746 11.582 17.4026 11.4119 17.4813C11.0118 17.6684 10.6616 17.9636 10.4115 18.3278C10.1614 18.692 10.0114 19.1153 9.99136 19.5582C9.96135 20.0012 10.0614 20.4343 10.2615 20.828C10.4615 21.2217 10.7717 21.5465 11.1518 21.7828C11.532 22.019 11.9621 22.147 12.4123 22.1667C12.8625 22.1765 13.3027 22.0781 13.6928 21.8615C14.083 21.645 14.4131 21.3398 14.6432 20.956C14.8733 20.5819 14.9933 20.1488 14.9933 19.7059V3.93719C14.9933 3.67143 15.1034 3.42535 15.2834 3.23833C15.4735 3.05131 15.7236 2.95288 15.9937 2.95288H20.9957C21.2658 2.95288 21.5159 3.06116 21.7059 3.23833C21.896 3.42535 21.9961 3.67143 21.9961 3.93719C21.9961 5.50225 22.6263 7.00825 23.7567 8.11068C24.8872 9.22295 26.4078 9.84307 27.9984 9.84307C28.2685 9.84307 28.5186 9.95134 28.7087 10.1285C28.8988 10.3057 28.9988 10.5616 28.9988 10.8274H29.0088Z" fill="white"/>
<path d="M21.0057 2.95294C21.2758 2.95294 21.5259 3.06121 21.716 3.23839C21.9061 3.42541 22.0061 3.67149 22.0061 3.93725C22.0061 5.50231 22.6363 7.00831 23.7668 8.11074C24.8972 9.22301 26.4178 9.84313 28.0084 9.84313C28.2785 9.84313 28.5286 9.9514 28.7187 10.1286C28.9088 10.3058 29.0088 10.5617 29.0088 10.8274V15.749C29.0088 16.0148 28.8988 16.2608 28.7187 16.4479C28.5286 16.6349 28.2785 16.7333 28.0084 16.7333C27.9984 16.7333 27.9884 16.7333 27.9784 16.7333C25.8976 16.7333 23.8568 16.2412 22.0061 15.2962V19.6863C22.0061 21.4679 21.4859 23.2101 20.5155 24.7062C19.5451 26.2024 18.1546 27.4033 16.5239 28.1612C15.2635 28.7419 13.8829 29.0372 12.5024 29.0372C12.0922 29.0372 11.6821 29.0077 11.2719 28.9585C9.48119 28.7321 7.79053 28.0037 6.39998 26.8619C5.00944 25.7201 3.98904 24.2141 3.43882 22.5211C2.88861 20.8281 2.84859 19.0071 3.30877 17.2944C3.76895 15.5718 4.72933 14.0265 6.05985 12.8158C7.39037 11.6149 9.04102 10.8078 10.8217 10.4928C10.8817 10.4829 10.9418 10.4731 11.0018 10.4731C11.0918 10.4731 11.1719 10.4829 11.2519 10.5026C11.3919 10.542 11.522 10.601 11.632 10.6995C11.7521 10.7881 11.8421 10.9062 11.9021 11.044C11.9622 11.1818 11.9922 11.3196 11.9922 11.4672V16.5857C11.9922 16.7727 11.9422 16.9499 11.8321 17.1074C11.7321 17.2648 11.582 17.3928 11.4119 17.4715C11.0118 17.6586 10.6617 17.9539 10.4116 18.3181C10.1615 18.6823 10.0114 19.1055 9.99139 19.5484C9.96138 19.9914 10.0614 20.4245 10.2615 20.8182C10.4616 21.2119 10.7717 21.5368 11.1518 21.773C11.532 22.0092 11.9622 22.1372 12.4123 22.1569C12.4423 22.1569 12.4624 22.1569 12.4924 22.1569C12.9125 22.1569 13.3227 22.0486 13.6928 21.8517C14.083 21.6352 14.4131 21.3301 14.6432 20.9462C14.8733 20.5721 14.9933 20.139 14.9933 19.6961V3.93725C14.9933 3.67149 15.1034 3.42541 15.2835 3.23839C15.4735 3.05137 15.7236 2.95294 15.9937 2.95294H20.9957M21.0057 0H16.0037C14.9333 0 13.9329 0.413411 13.1726 1.15165C12.4123 1.88988 12.0022 2.88404 12.0022 3.93725V7.63827C11.672 7.55952 11.3419 7.51031 11.0018 7.51031C10.7617 7.51031 10.5316 7.52999 10.2915 7.56936C7.95059 7.98278 5.77974 9.03599 4.02905 10.6306C2.27837 12.2153 1.02788 14.2528 0.417641 16.5266C-0.192597 18.7905 -0.132574 21.1726 0.587708 23.407C1.30799 25.6413 2.65852 27.6198 4.47923 29.1258C6.30995 30.6318 8.52081 31.5866 10.8817 31.8917C11.4119 31.9606 11.9622 32 12.5024 32C14.3231 32 16.1538 31.5964 17.7944 30.8385C19.9553 29.8444 21.766 28.2793 23.0465 26.3008C24.327 24.3224 24.9973 22.0388 24.9973 19.6961V19.4205C25.9776 19.6075 26.968 19.6961 27.9684 19.6961C29.0689 19.6961 30.0792 19.2827 30.8295 18.5444C31.5798 17.8062 32 16.8121 32 15.7588V10.8373C32 9.78407 31.5798 8.79975 30.8295 8.05168C30.0692 7.3036 29.0689 6.90003 27.9984 6.90003C27.1981 6.90003 26.4478 6.59489 25.8776 6.03384C25.3074 5.47278 24.9973 4.73454 24.9973 3.94709C24.9973 2.89388 24.5771 1.90957 23.8268 1.16149C23.0665 0.413411 22.0661 0.00984313 20.9957 0.00984313L21.0057 0Z" fill="#1C1C1C"/>
</g>
<defs>
<clipPath id="clip0_2683_4148">
<rect width="32" height="32" fill="white"/>
</clipPath>
</defs>
</svg>
