<svg width="32" height="32" viewBox="0 0 32 32" fill="none" xmlns="http://www.w3.org/2000/svg">
<g clip-path="url(#clip0_2688_4306)">
<path d="M15.9812 29.9699C23.7297 29.9699 30.0112 23.6885 30.0112 15.9399C30.0112 8.19136 23.7297 1.90991 15.9812 1.90991C8.23262 1.90991 1.95117 8.19136 1.95117 15.9399C1.95117 23.6885 8.23262 29.9699 15.9812 29.9699Z" fill="white"/>
<path d="M32.0013 15.93C31.9813 11.71 30.3413 7.75 27.3913 4.76C24.4313 1.77 20.5013 0.08 16.3013 0C16.2013 0 16.1013 0 16.0013 0C11.9113 0 8.02131 1.54 5.04131 4.34C1.98131 7.22 0.191312 11.11 0.0113123 15.3C-0.168688 20.07 1.81131 24.49 5.10131 27.57H5.04131C6.40131 28.85 7.96131 29.85 9.63131 30.58C9.67131 30.6 9.71131 30.62 9.75131 30.64C10.1113 30.79 10.4713 30.93 10.8413 31.05C10.9713 31.1 11.1113 31.15 11.2413 31.19C11.5313 31.28 11.8213 31.36 12.1213 31.43C12.3413 31.48 12.5513 31.54 12.7813 31.59C13.0113 31.64 13.2413 31.67 13.4813 31.71C13.6813 31.74 13.8813 31.79 14.0913 31.81H14.1213H14.1513C14.2113 31.81 14.2613 31.81 14.3213 31.81C14.8813 31.87 15.4413 31.9 16.0013 31.9C16.1013 31.9 16.2013 31.9 16.3013 31.9C16.7413 31.9 17.1713 31.86 17.6013 31.81C17.6913 31.81 17.7713 31.81 17.8613 31.8H17.9013H17.9413C18.4313 31.74 18.9113 31.66 19.3813 31.55C20.3113 31.35 21.2113 31.06 22.0913 30.7C22.1113 30.7 22.1213 30.69 22.1413 30.68C22.5413 30.51 22.9313 30.33 23.3213 30.13C23.3713 30.11 23.4213 30.08 23.4613 30.06C23.8113 29.87 24.1613 29.67 24.4913 29.45C24.5713 29.4 24.6513 29.35 24.7313 29.3C25.0413 29.1 25.3313 28.88 25.6313 28.66C25.7413 28.58 25.8413 28.5 25.9513 28.42C26.2213 28.2 26.4813 27.98 26.7413 27.74C26.8513 27.64 26.9713 27.53 27.0813 27.43C27.1813 27.33 27.2913 27.24 27.3913 27.14H27.3513C27.5613 26.94 27.7713 26.73 27.9713 26.51C30.5613 23.58 31.9913 19.82 32.0013 15.91V15.93ZM3.01131 15.44C3.16131 12.05 4.62131 8.85 7.10131 6.53C9.51131 4.26 12.7013 3 16.0013 3C16.0813 3 16.1613 3 16.2413 3C19.6313 3.06 22.8613 4.45 25.2513 6.86C27.6313 9.27 28.9813 12.52 29.0013 15.92C29.0013 19.1 27.8313 22.16 25.7213 24.54C23.6113 26.92 20.7113 28.44 17.5613 28.83C17.5413 28.83 17.5313 28.83 17.5113 28.83C17.5113 28.83 17.5113 28.83 17.5013 28.83V19.42H20.0013C20.2113 19.43 20.4113 19.38 20.6013 19.3C20.7913 19.22 20.9613 19.1 21.1013 18.95C21.2413 18.8 21.3513 18.62 21.4213 18.43C21.4913 18.24 21.5213 18.03 21.5113 17.81C21.4813 17.42 21.3013 17.07 21.0113 16.81C20.7213 16.55 20.3513 16.41 19.9713 16.42H17.5113V13.92C17.5113 13.52 17.6713 13.14 17.9513 12.86C18.2313 12.58 18.6113 12.42 19.0113 12.42H21.0113C21.2213 12.42 21.4213 12.38 21.6013 12.3C21.7913 12.22 21.9613 12.1 22.1013 11.95C22.2413 11.8 22.3513 11.62 22.4213 11.43C22.4913 11.24 22.5213 11.03 22.5113 10.81C22.4813 10.42 22.3013 10.07 22.0113 9.81C21.7213 9.55 21.3413 9.4 20.9713 9.42H19.0113C17.8113 9.42 16.6813 9.89 15.8313 10.74C14.9813 11.59 14.5113 12.72 14.5113 13.92V16.42H12.0113C11.8113 16.44 11.6013 16.46 11.4113 16.54C11.2213 16.62 11.0513 16.74 10.9113 16.89C10.7713 17.04 10.6613 17.22 10.5913 17.41C10.5213 17.6 10.4913 17.81 10.5113 18.02C10.5413 18.41 10.7213 18.76 11.0113 19.02C11.3013 19.28 11.6813 19.43 12.0513 19.41H14.5113V28.82C14.4913 28.82 14.4813 28.82 14.4613 28.82C7.86131 28.02 2.76131 22.28 3.02131 15.42L3.01131 15.44Z" fill="#1C1C1C"/>
</g>
<defs>
<clipPath id="clip0_2688_4306">
<rect width="32" height="32" fill="white"/>
</clipPath>
</defs>
</svg>
