<svg width="39" height="39" viewBox="0 0 39 39" fill="none" xmlns="http://www.w3.org/2000/svg">
<path d="M34.5902 23.5362L27.4652 30.6612C27.2423 30.884 26.9401 31.0092 26.625 31.0092C26.3099 31.0092 26.0077 30.884 25.7848 30.6612C25.562 30.4384 25.4368 30.1362 25.4368 29.821C25.4368 29.5059 25.562 29.2037 25.7848 28.9809L30.8837 23.8835H19.5C15.407 23.8792 11.483 22.2514 8.58881 19.3572C5.69466 16.4631 4.06682 12.539 4.0625 8.44604C4.0625 8.1311 4.18761 7.82906 4.41031 7.60636C4.63301 7.38366 4.93506 7.25854 5.25 7.25854C5.56494 7.25854 5.86699 7.38366 6.08969 7.60636C6.31239 7.82906 6.4375 8.1311 6.4375 8.44604C6.44143 11.9092 7.81891 15.2294 10.2678 17.6783C12.7166 20.1271 16.0368 21.5046 19.5 21.5085H30.8837L25.7848 16.4112C25.562 16.1884 25.4368 15.8862 25.4368 15.571C25.4368 15.2559 25.562 14.9537 25.7848 14.7309C26.0077 14.5081 26.3099 14.3829 26.625 14.3829C26.9401 14.3829 27.2423 14.5081 27.4652 14.7309L34.5902 21.8559C34.7006 21.9662 34.7882 22.0971 34.8479 22.2413C34.9077 22.3855 34.9384 22.54 34.9384 22.696C34.9384 22.8521 34.9077 23.0066 34.8479 23.1508C34.7882 23.2949 34.7006 23.4259 34.5902 23.5362Z" fill="#1C1C1C"/>
</svg>
