<svg width="48" height="48" viewBox="0 0 48 48" fill="none" xmlns="http://www.w3.org/2000/svg">
<rect x="1.16992" y="0.512451" width="46.3027" height="46.3027" rx="23.1514" stroke="white"/>
<path d="M21.1514 17.2117V30.6447C21.1534 30.7519 21.1836 30.8566 21.239 30.9484C21.2944 31.0402 21.373 31.1158 21.4669 31.1675C21.5608 31.2192 21.6667 31.2452 21.7739 31.243C21.8811 31.2407 21.9858 31.2102 22.0774 31.1546L33.0592 24.4381C33.1469 24.385 33.2194 24.3102 33.2698 24.2209C33.3201 24.1315 33.3466 24.0307 33.3466 23.9282C33.3466 23.8257 33.3201 23.7249 33.2698 23.6355C33.2194 23.5462 33.1469 23.4714 33.0592 23.4183L22.0774 16.7018C21.9858 16.6462 21.8811 16.6157 21.7739 16.6134C21.6667 16.6112 21.5608 16.6372 21.4669 16.6889C21.373 16.7406 21.2944 16.8162 21.239 16.908C21.1836 16.9997 21.1534 17.1045 21.1514 17.2117Z" fill="white" stroke="white" stroke-linecap="round" stroke-linejoin="round"/>
</svg>