<svg width="138" height="139" viewBox="0 0 138 139" fill="none" xmlns="http://www.w3.org/2000/svg">
<path d="M29.3779 108.883C24.4186 103.924 27.7068 93.5197 25.1732 87.4283C22.6397 81.3368 12.9365 76.0001 12.9365 69.2618C12.9365 62.5236 22.5318 57.4025 25.1732 51.0954C27.8147 44.7884 24.4186 34.6001 29.3779 29.6407C34.3373 24.6814 44.7412 27.9697 50.8326 25.4361C56.924 22.9025 62.2607 13.1993 68.999 13.1993C75.7373 13.1993 80.8584 22.7947 87.1654 25.4361C93.4725 28.0775 103.661 24.6814 108.62 29.6407C113.58 34.6001 110.291 45.004 112.825 51.0954C115.358 57.1868 125.062 62.5236 125.062 69.2618C125.062 76.0001 115.466 81.1212 112.825 87.4283C110.183 93.7353 113.58 103.924 108.62 108.883C103.661 113.842 93.2568 110.554 87.1654 113.088C81.074 115.621 75.7373 125.324 68.999 125.324C62.2607 125.324 57.1397 115.729 50.8326 113.088C44.5256 110.446 34.3373 113.842 29.3779 108.883Z" fill="white" stroke="#1C1C1C" stroke-width="6" stroke-linecap="round" stroke-linejoin="round"/>
<path d="M92.7188 56.3242L61.0758 86.5117L45.2812 71.418" stroke="#1C1C1C" stroke-width="6" stroke-linecap="round" stroke-linejoin="round"/>
</svg>
