<svg width="138" height="139" viewBox="0 0 138 139" fill="none" xmlns="http://www.w3.org/2000/svg">
<path d="M49.6475 95.1363C52.3234 102.705 57.2805 109.258 63.8357 113.892C70.391 118.526 78.222 121.013 86.2498 121.011H121.828C122.686 121.011 123.508 120.671 124.115 120.064C124.722 119.457 125.062 118.635 125.062 117.777V82.1988C125.076 72.2646 121.275 62.7044 114.444 55.4919C107.612 48.2793 98.2724 43.9652 88.3521 43.4402" fill="white"/>
<path d="M49.6475 95.1363C52.3234 102.705 57.2805 109.258 63.8357 113.892C70.391 118.526 78.222 121.013 86.2498 121.011H121.828C122.686 121.011 123.508 120.671 124.115 120.064C124.722 119.457 125.062 118.635 125.062 117.777V82.1988C125.076 72.2646 121.275 62.7044 114.444 55.4919C107.612 48.2793 98.2724 43.9652 88.3521 43.4402" stroke="#1C1C1C" stroke-width="6" stroke-linecap="round" stroke-linejoin="round"/>
<path d="M51.749 95.1367H16.1709C15.3131 95.1367 14.4904 94.796 13.8838 94.1894C13.2773 93.5828 12.9365 92.7602 12.9365 91.9023V56.3242C12.9365 46.0305 17.0257 36.1584 24.3044 28.8796C31.5832 21.6009 41.4553 17.5117 51.749 17.5117C62.0427 17.5117 71.9148 21.6009 79.1936 28.8796C86.4724 36.1584 90.5615 46.0305 90.5615 56.3242C90.5615 66.6179 86.4724 76.49 79.1936 83.7688C71.9148 91.0476 62.0427 95.1367 51.749 95.1367Z" fill="white" stroke="#1C1C1C" stroke-width="6" stroke-linecap="round" stroke-linejoin="round"/>
<path d="M34.501 51.0347H64.6885" stroke="#1C1C1C" stroke-width="6" stroke-linecap="round" stroke-linejoin="round"/>
<path d="M34.501 63.9722H64.6885" stroke="#1C1C1C" stroke-width="6" stroke-linecap="round" stroke-linejoin="round"/>
</svg>
