<svg width="25" height="25" viewBox="0 0 25 25" fill="none" xmlns="http://www.w3.org/2000/svg">
<path d="M22.5927 20.7773C21.1649 18.3089 18.9646 16.5389 16.3968 15.6998C17.6669 14.9437 18.6538 13.7915 19.2057 12.4203C19.7577 11.049 19.8443 9.53447 19.4522 8.10924C19.06 6.68401 18.2109 5.4269 17.0352 4.53096C15.8595 3.63502 14.4222 3.14979 12.944 3.14979C11.4658 3.14979 10.0285 3.63502 8.85275 4.53096C7.67703 5.4269 6.82791 6.68401 6.4358 8.10924C6.04368 9.53447 6.13026 11.049 6.68222 12.4203C7.23418 13.7915 8.22101 14.9437 9.49117 15.6998C6.92335 16.538 4.72304 18.308 3.29523 20.7773C3.24287 20.8627 3.20814 20.9577 3.19309 21.0567C3.17804 21.1558 3.18297 21.2568 3.2076 21.3539C3.23222 21.4509 3.27604 21.5421 3.33647 21.622C3.3969 21.7018 3.47271 21.7688 3.55944 21.8189C3.64617 21.869 3.74205 21.9012 3.84142 21.9136C3.9408 21.9261 4.04167 21.9185 4.13806 21.8913C4.23446 21.8641 4.32444 21.8179 4.40269 21.7554C4.48094 21.6929 4.54587 21.6154 4.59367 21.5273C6.35992 18.4748 9.48179 16.6523 12.944 16.6523C16.4062 16.6523 19.528 18.4748 21.2943 21.5273C21.3421 21.6154 21.407 21.6929 21.4853 21.7554C21.5635 21.8179 21.6535 21.8641 21.7499 21.8913C21.8463 21.9185 21.9472 21.9261 22.0465 21.9136C22.1459 21.9012 22.2418 21.869 22.3285 21.8189C22.4152 21.7688 22.4911 21.7018 22.5515 21.622C22.6119 21.5421 22.6557 21.4509 22.6804 21.3539C22.705 21.2568 22.7099 21.1558 22.6949 21.0567C22.6798 20.9577 22.6451 20.8627 22.5927 20.7773ZM7.69398 9.90234C7.69398 8.86399 8.00189 7.84896 8.57876 6.9856C9.15564 6.12224 9.97558 5.44934 10.9349 5.05198C11.8942 4.65462 12.9498 4.55065 13.9682 4.75322C14.9866 4.95579 15.9221 5.45581 16.6563 6.19003C17.3905 6.92426 17.8905 7.85972 18.0931 8.87812C18.2957 9.89652 18.1917 10.9521 17.7943 11.9114C17.397 12.8707 16.7241 13.6907 15.8607 14.2676C14.9974 14.8444 13.9823 15.1523 12.944 15.1523C11.552 15.1509 10.2176 14.5973 9.23331 13.613C8.24907 12.6288 7.69547 11.2943 7.69398 9.90234Z" fill="#1C1C1C" stroke="#1C1C1C" stroke-width="0.1"/>
</svg>
