<?xml version="1.0" encoding="utf-8"?>
<!-- Generator: Adobe Illustrator 23.0.1, SVG Export Plug-In . SVG Version: 6.00 Build 0)  -->
<svg version="1.1" id="Layer_1" xmlns="http://www.w3.org/2000/svg" xmlns:xlink="http://www.w3.org/1999/xlink" x="0px" y="0px"
	 viewBox="0 0 40 40" style="enable-background:new 0 0 40 40;" xml:space="preserve">
<style type="text/css">
	.st0{display:none;fill-rule:evenodd;clip-rule:evenodd;}
	.st1{fill:none;stroke:#2C2C2C;stroke-width:1.6;stroke-linecap:round;stroke-linejoin:round;}
	.st2{fill:none;stroke:#2C2C2C;stroke-width:1.6;}
</style>
<path class="st0" d="M15.8,11.8h-3.2l-0.8,11.6c-0.2,2.8,1.9,5.1,4.6,5.3c0.1,0,0.2,0,0.3,0h7.4c2.8,0,5-2.2,5-5c0-0.1,0-0.2,0-0.3
	l-0.8-11.6C28.3,11.8,15.8,11.8,15.8,11.8z M15.8,12.8h-2.2l-0.7,10.7c-0.1,2.2,1.5,4.1,3.7,4.3c0.1,0,0.2,0,0.3,0h7.4
	c2.2,0,4-1.8,4-4c0-0.1,0-0.2,0-0.3l-0.7-10.7h-2.2v0.6c0,2.6-2.1,4.7-4.8,4.7s-4.8-2.1-4.8-4.7C15.8,13.4,15.8,12.8,15.8,12.8z
	 M24.3,12.8h-7.5v0.6c0,2.1,1.7,3.7,3.8,3.7s3.8-1.7,3.8-3.7L24.3,12.8L24.3,12.8z"/>
<path class="st1" d="M12.4,9.7c0-2,0.8-4,2.2-5.4C16.1,2.8,18,2.1,20,2.1s4,0.8,5.4,2.2c1.5,1.5,2.2,3.4,2.2,5.4"/>
<path class="st1" d="M12.4,18.1c0,2,0.8,4,2.2,5.4c1.5,1.5,3.4,2.2,5.4,2.2s4-0.8,5.4-2.2c1.5-1.5,2.2-3.4,2.2-5.4"/>
<path class="st2" d="M1.3,14.2c0-1.7,1.3-3,3-3h31.6c1.7,0,3,1.3,3,3V28c0,5-4.2,9.2-9.2,9.2H10.6c-5,0-9.2-4.2-9.2-9.2V14.2z"/>
</svg>
