<svg width="20" height="20" viewBox="0 0 20 20" fill="none" xmlns="http://www.w3.org/2000/svg">
<path d="M5.91774 14.6541C2.56646 9.06908 7.0374 3.48408 16.5293 4.04251C17.0877 13.5372 11.5027 18.0054 5.91774 14.6541Z" fill="#E0DFDC"/>
<path d="M17.0893 4.00896C17.0813 3.872 17.0233 3.74275 16.9263 3.64574C16.8293 3.54873 16.7 3.49072 16.5631 3.48272C11.2356 3.16992 6.9683 4.77383 5.14886 7.78291C4.51818 8.81224 4.2074 10.0057 4.25593 11.2119C4.29582 12.3259 4.62052 13.4512 5.22093 14.5603L3.85565 15.9249C3.7506 16.03 3.69159 16.1724 3.69159 16.321C3.69159 16.4696 3.7506 16.612 3.85565 16.7171C3.9607 16.8221 4.10317 16.8811 4.25173 16.8811C4.40029 16.8811 4.54276 16.8221 4.64781 16.7171L6.01239 15.3518C7.12085 15.9515 8.24681 16.2762 9.36017 16.3161C9.43808 16.3189 9.51576 16.3203 9.5932 16.3203C10.7211 16.3233 11.8276 16.0127 12.7891 15.4232C15.7982 13.6037 17.4028 9.33714 17.0893 4.00896ZM12.2118 14.4659C10.6198 15.4302 8.73526 15.4456 6.84374 14.5198L13.0459 8.31825C13.098 8.26623 13.1392 8.20448 13.1674 8.13652C13.1955 8.06857 13.21 7.99573 13.21 7.92217C13.21 7.84861 13.1955 7.77577 13.1674 7.70781C13.1392 7.63985 13.098 7.5781 13.0459 7.52609C12.9939 7.47408 12.9322 7.43282 12.8642 7.40467C12.7963 7.37652 12.7234 7.36203 12.6499 7.36203C12.5763 7.36203 12.5035 7.37652 12.4355 7.40467C12.3676 7.43282 12.3058 7.47408 12.2538 7.52609L6.05228 13.7311C5.12926 11.8417 5.14256 9.95225 6.10616 8.36303C7.65199 5.81091 11.3266 4.41344 15.9948 4.57999C16.1621 9.24477 14.7639 12.92 12.2118 14.4659Z" fill="black"/>
</svg>
