<svg width="12" height="12" viewBox="0 0 12 12" fill="none" xmlns="http://www.w3.org/2000/svg">
<path fill-rule="evenodd" clip-rule="evenodd" d="M1.38014 0.975766C1.38012 0.436872 1.81702 -2.65032e-05 2.35591 -1.26317e-05L10.6358 -1.30953e-05C11.1747 7.47239e-06 11.6115 0.436894 11.6115 0.975773L11.6115 9.25561C11.6115 9.79449 11.1746 10.2314 10.6358 10.2314C10.0969 10.2314 9.65996 9.79451 9.65998 9.25561L9.65998 3.33153L1.66593 11.3256C1.28487 11.7066 0.667041 11.7067 0.285961 11.3256C-0.0951044 10.9445 -0.0951045 10.3267 0.285961 9.9456L8.28001 1.95155L2.35593 1.95156C1.81701 1.95156 1.38014 1.51469 1.38014 0.975766Z" fill="white"/>
</svg>
