<svg width="121" height="121" viewBox="0 0 121 121" fill="none" xmlns="http://www.w3.org/2000/svg">
<path fill-rule="evenodd" clip-rule="evenodd" d="M89.7231 38.8236C96.9279 41.4817 99.1514 43.208 99.1514 43.208C98.8443 49.4026 93.3187 54.9791 84.8592 58.6854C93.314 62.4166 98.8278 68.0111 99.1164 74.2086C99.1164 74.2086 96.8881 75.9236 89.6756 78.5629C83.3423 80.8819 78.5142 81.407 78.5142 81.407L78.5586 67.6042C78.5616 65.5405 77.7395 63.4305 76.1771 61.5646C71.3866 62.7169 66.0924 63.3571 60.5409 63.3503L60.5361 63.3503C54.9922 63.3409 49.707 62.6869 44.9254 61.5235C43.3604 63.3837 42.5337 65.4896 42.5307 67.5516L42.5351 81.3544C42.5351 81.3544 37.7063 80.8153 31.3821 78.4777C24.1796 75.8174 21.9518 74.0959 21.9518 74.0959C22.2598 67.902 27.7857 62.3258 36.2454 58.6193C27.7916 54.8884 22.2785 49.2935 21.9885 43.0953C21.9885 43.0953 24.2167 41.3755 31.429 38.7385C37.7603 36.4194 42.5881 35.8921 42.5881 35.8921L42.5459 49.6972C42.5429 51.7618 43.3651 53.8728 44.9277 55.7396C49.7187 54.5869 55.0134 53.9461 60.5655 53.9524C66.1098 53.9624 71.3956 54.6168 76.1779 55.7806C77.7439 53.9195 78.5711 51.8127 78.5741 49.7498L78.5704 35.9447C78.5704 35.9447 83.4011 36.4864 89.7231 38.8236ZM72.8015 58.6666C69.8119 56.7889 65.7289 55.5581 60.7214 55.5508L60.5629 55.5457L60.558 55.5457L60.4018 55.5504C55.3876 55.543 51.2975 56.7648 48.3018 58.6376C51.2907 60.5157 55.3727 61.7468 60.3796 61.7541L60.7018 61.7546C65.7153 61.7619 69.8055 60.5398 72.8015 58.6666Z" fill="#1C1C1C"/>
</svg>
