<svg width="121" height="121" viewBox="0 0 121 121" fill="none" xmlns="http://www.w3.org/2000/svg">
<path fill-rule="evenodd" clip-rule="evenodd" d="M27.4705 47.2627C21.9689 53.7046 16.6913 61.6953 16.6298 67.6738C16.6059 69.9232 17.3212 71.888 19.0415 73.3779C21.5174 75.5237 24.2477 76.2831 26.9657 76.2915C30.9377 76.3029 34.8842 74.7062 37.9742 73.4751C43.1782 71.4027 100.706 46.5204 100.706 46.5204C101.261 46.2433 101.158 45.8968 100.463 46.0687C100.183 46.1383 37.8501 62.9329 37.8501 62.9329C36.6694 63.265 35.4496 63.4378 34.2231 63.4468C29.4345 63.4681 25.1774 60.8039 25.2201 55.2028C25.2366 53.0112 25.9113 50.3692 27.4705 47.2627Z" fill="#1C1C1C"/>
</svg>
