<svg width="121" height="121" viewBox="0 0 121 121" fill="none" xmlns="http://www.w3.org/2000/svg">
<path fill-rule="evenodd" clip-rule="evenodd" d="M26.572 69.256L43.3439 68.6833L42.495 70.1642L26.572 69.256ZM24.521 72.778L41.3326 72.2045L40.5032 73.6894L24.521 72.778ZM22.5308 76.3203L39.3213 75.7554L38.4935 77.2309L22.5308 76.3203ZM20.5397 79.8626L37.3513 79.2884L36.4837 80.7716L20.5397 79.8626ZM36.5364 51.6466L57.9429 50.9161L58.0009 52.8709L36.5364 51.6466ZM38.5821 48.0646L57.8124 47.4183L57.8706 49.1992L38.5821 48.0646ZM40.5465 44.5831L57.6801 44.0444L57.7605 45.5641L40.5465 44.5831ZM42.5515 41.061L57.5697 40.5809L57.627 41.9735L42.5515 41.061ZM44.4151 37.7618L57.4764 37.7809L57.4948 38.4748L44.4151 37.7618ZM18.5495 83.4026L35.3206 82.8197L34.9774 83.4266L18.5495 83.4026ZM68.0513 37.9094L92.2199 37.9447C101.613 37.9787 103.619 43.5852 102.404 49.0669C101.065 55.1005 94.3272 59.4561 90.4547 60.3377C97.3859 62.6051 97.3793 67.1202 95.9195 72.1166C94.4604 77.1138 86.7121 83.3914 78.0857 83.3788L45.5527 83.3313L45.5135 82.3621L55.4917 82.0157C55.6936 82.016 55.694 81.7735 55.5521 81.753L45.4747 81.1785L45.3977 78.9235L57.4717 78.51C57.7134 78.5104 57.6733 78.2483 57.5329 78.2286L45.3389 77.5333L45.2803 75.4834L59.4713 75.0059C59.7137 75.0063 59.6534 74.7239 59.513 74.7035L45.2023 73.8873L45.1248 72.019L61.5114 71.4605C61.7336 71.4609 61.6732 71.2191 61.5531 71.1986L45.0665 70.2584L45.0082 68.5883L63.5133 67.9557C63.7542 67.956 63.654 67.6939 63.5535 67.6735L28.7263 65.6882L65.495 64.4336C65.7959 64.4138 65.6568 64.1516 65.5149 64.1311L30.687 62.1451L67.5141 60.8687C67.7566 60.8691 67.7172 60.6071 67.5558 60.6068L32.7279 58.6215L69.4942 57.3646C69.7366 57.365 69.7565 57.0827 69.5359 57.0824L34.708 55.0964L71.4149 53.9204C71.6573 53.9208 71.6358 53.6985 71.455 53.678L59.4839 52.9954L60.7174 50.8703L73.4565 50.4351C73.699 50.4355 73.7188 50.1938 73.4569 50.1731L61.5053 49.4703L62.7178 47.3186L75.4569 46.8905C75.7189 46.8908 75.7192 46.6686 75.4572 46.648L63.4659 45.9646L64.6564 43.9072L77.4165 43.5064C77.5576 43.5066 77.5977 43.2852 77.4363 43.2647L65.4256 42.5377L66.6575 40.3891L79.3966 39.982C79.5993 39.9823 79.5996 39.7811 79.4577 39.7809L67.3642 39.1216L68.0513 37.9094ZM65.8077 72.9139L75.8048 72.9285C82.8188 72.9388 86.5431 62.9463 78.8835 62.9351L71.4656 62.9243L65.8077 72.9139ZM82.9647 55.7641C86.0266 55.7686 88.4512 52.708 88.7757 51.4991C89.0987 50.2911 88.9413 47.5495 84.1052 47.381L80.3152 47.3755L75.5468 55.7533L82.9647 55.7641Z" fill="#1C1C1C"/>
</svg>