<?xml version="1.0" encoding="utf-8"?>
<!-- Generator: Adobe Illustrator 23.0.1, SVG Export Plug-In . SVG Version: 6.00 Build 0)  -->
<svg version="1.1" id="Layer_1" xmlns="http://www.w3.org/2000/svg" xmlns:xlink="http://www.w3.org/1999/xlink" x="0px" y="0px"
	 viewBox="0 0 121 121" style="enable-background:new 0 0 121 121;" xml:space="preserve">
<style type="text/css">
	.st0{fill-rule:evenodd;clip-rule:evenodd;fill:#FFFFFF;}
</style>
<path class="st0" d="M89.7,38.8c7.2,2.7,9.4,4.4,9.4,4.4c-0.3,6.2-5.8,11.8-14.3,15.5c8.5,3.7,14,9.3,14.3,15.5c0,0-2.2,1.7-9.4,4.4
	c-6.3,2.3-11.2,2.8-11.2,2.8l0-13.8c0-2.1-0.8-4.2-2.4-6c-4.8,1.2-10.1,1.8-15.6,1.8h0c-5.5,0-10.8-0.7-15.6-1.8
	c-1.6,1.9-2.4,4-2.4,6l0,13.8c0,0-4.8-0.5-11.2-2.9c-7.2-2.7-9.4-4.4-9.4-4.4c0.3-6.2,5.8-11.8,14.3-15.5c-8.5-3.7-14-9.3-14.3-15.5
	c0,0,2.2-1.7,9.4-4.4c6.3-2.3,11.2-2.8,11.2-2.8l0,13.8c0,2.1,0.8,4.2,2.4,6c4.8-1.2,10.1-1.8,15.6-1.8c5.5,0,10.8,0.7,15.6,1.8
	c1.6-1.9,2.4-4,2.4-6l0-13.8C78.6,35.9,83.4,36.5,89.7,38.8z M72.8,58.7c-3-1.9-7.1-3.1-12.1-3.1l-0.2,0h0l-0.2,0
	c-5,0-9.1,1.2-12.1,3.1c3,1.9,7.1,3.1,12.1,3.1l0.3,0C65.7,61.8,69.8,60.5,72.8,58.7z"/>
</svg>
