<?xml version="1.0" encoding="utf-8"?>
<!-- Generator: Adobe Illustrator 23.0.1, SVG Export Plug-In . SVG Version: 6.00 Build 0)  -->
<svg version="1.1" id="Layer_1" xmlns="http://www.w3.org/2000/svg" xmlns:xlink="http://www.w3.org/1999/xlink" x="0px" y="0px"
	 viewBox="0 0 121 121" style="enable-background:new 0 0 121 121;" xml:space="preserve">
<style type="text/css">
	.st0{fill:#FFFFFF;}
</style>
<path class="st0" d="M28.8,32.6c-0.5,0.1-1,1.9-1.9,2.8c-0.7,0.7-1.6,0.6-2.1,1.5c-0.2,0.3-0.1,0.8-0.3,1.3c-0.4,1-1.8,1.1-1.8,2.2
	c0,1.2,1.2,1.4,2.2,2.3c0.8,0.7,0.9,1.2,1.8,1.5c0.8,0.3,2-0.6,3.1-0.3c0.9,0.3,1.7,0.4,1.9,1.3c0.2,0.8,0,2.1-1.1,1.9
	c-0.4,0-1.9-0.6-3.9-0.4c-2.3,0.3-5,1-5.3,3.5c-0.1,1.4,1.7,3.1,3.4,2.8c1.2-0.2,0.6-1.6,1.3-2.3c0.9-0.9,5.7,3,10.3,3
	c1.9,0,3.3-0.5,4.7-1.9c0.1-0.1,0.3-0.3,0.5-0.4c0.2,0,0.5,0.2,0.6,0.3c3.6,2.9,6.4,8.6,19.8,8.7c1.9,0,4,0.9,5.8,2.4
	c1.6,1.4,2.5,3.6,3.4,5.8c1.3,3.3,3.7,6.6,7.4,10.2c0.2,0.2,3.2,2.5,3.4,2.6c0,0,0.3,0.5,0.2,0.8c-0.1,2.2-0.4,8.4,4.4,8.7
	c1.2,0.1,0.9-0.7,0.9-1.3c0-1.1-0.2-2.2,0.4-3.3c0.8-1.5-1.7-2.3-1.6-5.6c0.1-2.5-2.1-2.1-3.2-4c-0.6-1.1-1.2-1.7-1.1-3
	c0.3-7.5-1.6-12.5-2.6-13.7c-0.7-0.9-1.3-1.3-0.7-1.7c4-2.6,4.9-5,4.9-5c2.1-4.9,4.1-9.3,6.7-11.3c0.5-0.4,1.9-1.4,2.8-1.8
	c2.5-1.1,3.8-1.8,4.5-2.5c1.1-1.1,2-3.3,1-4.7c-1.4-1.7-3.7-0.4-4.7,0.2c-7.4,4.3-8.5,11.8-11.1,16.1c-2.1,3.5-5.4,6-8.4,6.2
	c-2.2,0.2-4.6-0.3-7-1.3c-5.8-2.5-9-5.7-9.7-6.3C56.1,47,43.9,35.5,34.1,35c0,0-1.2-2.4-1.5-2.4c-0.7-0.1-1.5,1.4-2,1.6
	C30.1,34.3,29.3,32.5,28.8,32.6z"/>
</svg>
