<?xml version="1.0" encoding="utf-8"?>
<!-- Generator: Adobe Illustrator 23.0.1, SVG Export Plug-In . SVG Version: 6.00 Build 0)  -->
<svg version="1.1" id="Layer_1" xmlns="http://www.w3.org/2000/svg" xmlns:xlink="http://www.w3.org/1999/xlink" x="0px" y="0px"
	 viewBox="0 0 121 121" style="enable-background:new 0 0 121 121;" xml:space="preserve">
<style type="text/css">
	.st0{fill-rule:evenodd;clip-rule:evenodd;fill:#FFFFFF;}
</style>
<path class="st0" d="M26.6,69.3l16.8-0.6l-0.8,1.5L26.6,69.3z M24.5,72.8l16.8-0.6l-0.8,1.5L24.5,72.8z M22.5,76.3l16.8-0.6
	l-0.8,1.5L22.5,76.3z M20.5,79.9l16.8-0.6l-0.9,1.5L20.5,79.9z M36.5,51.6l21.4-0.7l0.1,2L36.5,51.6z M38.6,48.1l19.2-0.6l0.1,1.8
	L38.6,48.1z M40.5,44.6L57.7,44l0.1,1.5L40.5,44.6z M42.6,41.1l15-0.5l0.1,1.4L42.6,41.1z M44.4,37.8l13.1,0l0,0.7L44.4,37.8z
	 M18.5,83.4l16.8-0.6L35,83.4L18.5,83.4z M68.1,37.9l24.2,0c9.4,0,11.4,5.6,10.2,11.1c-1.3,6-8.1,10.4-11.9,11.3
	c6.9,2.3,6.9,6.8,5.5,11.8c-1.5,5-9.2,11.3-17.8,11.3l-32.5,0l0-1l10-0.3c0.2,0,0.2-0.2,0.1-0.3l-10.1-0.6l-0.1-2.3l12.1-0.4
	c0.2,0,0.2-0.3,0.1-0.3l-12.2-0.7l-0.1-2L59.5,75c0.2,0,0.2-0.3,0-0.3l-14.3-0.8L45.1,72l16.4-0.6c0.2,0,0.2-0.2,0-0.3l-16.5-0.9
	L45,68.6L63.5,68c0.2,0,0.1-0.3,0-0.3l-34.8-2l36.8-1.3c0.3,0,0.2-0.3,0-0.3l-34.8-2l36.8-1.3c0.2,0,0.2-0.3,0-0.3l-34.8-2l36.8-1.3
	c0.2,0,0.3-0.3,0-0.3l-34.8-2l36.7-1.2c0.2,0,0.2-0.2,0-0.2l-12-0.7l1.2-2.1l12.7-0.4c0.2,0,0.3-0.2,0-0.3l-12-0.7l1.2-2.2l12.7-0.4
	c0.3,0,0.3-0.2,0-0.2l-12-0.7l1.2-2.1l12.8-0.4c0.1,0,0.2-0.2,0-0.2l-12-0.7l1.2-2.1L79.4,40c0.2,0,0.2-0.2,0.1-0.2l-12.1-0.7
	L68.1,37.9z M65.8,72.9l10,0c7,0,10.7-10,3.1-10l-7.4,0L65.8,72.9z M83,55.8c3.1,0,5.5-3.1,5.8-4.3c0.3-1.2,0.2-3.9-4.7-4.1l-3.8,0
	l-4.8,8.4L83,55.8z"/>
</svg>
