<svg width="32" height="33" viewBox="0 0 32 33" fill="none" xmlns="http://www.w3.org/2000/svg">
<path d="M21.6592 2.74512H10.6592C8.40484 2.74512 6.24283 3.64065 4.64877 5.23471C3.05471 6.82877 2.15918 8.99078 2.15918 11.2451V22.2451C2.15918 24.4995 3.05471 26.6615 4.64877 28.2555C6.24283 29.8496 8.40484 30.7451 10.6592 30.7451H21.6592C23.9135 30.7451 26.0755 29.8496 27.6696 28.2555C29.2636 26.6615 30.1592 24.4995 30.1592 22.2451V11.2451C30.1592 8.99078 29.2636 6.82877 27.6696 5.23471C26.0755 3.64065 23.9135 2.74512 21.6592 2.74512ZM16.1592 21.2451C15.2692 21.2451 14.3991 20.9812 13.6591 20.4867C12.9191 19.9923 12.3423 19.2895 12.0017 18.4672C11.6611 17.6449 11.572 16.7401 11.7456 15.8672C11.9193 14.9943 12.3479 14.1925 12.9772 13.5631C13.6065 12.9338 14.4084 12.5052 15.2813 12.3316C16.1542 12.158 17.059 12.2471 17.8813 12.5877C18.7035 12.9283 19.4063 13.505 19.9008 14.2451C20.3953 14.9851 20.6592 15.8551 20.6592 16.7451C20.6592 17.9386 20.1851 19.0832 19.3412 19.9271C18.4972 20.771 17.3527 21.2451 16.1592 21.2451Z" fill="white" stroke="#1C1C1C" stroke-width="3"/>
<path d="M16.1592 20.7451C18.3683 20.7451 20.1592 18.9543 20.1592 16.7451C20.1592 14.536 18.3683 12.7451 16.1592 12.7451C13.95 12.7451 12.1592 14.536 12.1592 16.7451C12.1592 18.9543 13.95 20.7451 16.1592 20.7451Z" fill="white" stroke="#1C1C1C"/>
<path d="M22.1373 11.0626C22.384 11.2275 22.674 11.3154 22.9707 11.3154C23.3685 11.3154 23.7501 11.1574 24.0314 10.8761C24.3127 10.5948 24.4707 10.2133 24.4707 9.81543C24.4707 9.51876 24.3827 9.22875 24.2179 8.98208C24.0531 8.7354 23.8188 8.54314 23.5447 8.42961C23.2706 8.31608 22.969 8.28637 22.6781 8.34425C22.3871 8.40213 22.1198 8.54499 21.91 8.75477C21.7003 8.96455 21.5574 9.23182 21.4995 9.52279C21.4416 9.81377 21.4714 10.1154 21.5849 10.3895C21.6984 10.6635 21.8907 10.8978 22.1373 11.0626Z" fill="#1C1C1C"/>
</svg>
